<svg xmlns="http://www.w3.org/2000/svg" xmlns:xlink="http://www.w3.org/1999/xlink" aria-hidden="true" role="img" class="iconify iconify--logos" width="31.88" height="32" preserveAspectRatio="xMidYMid meet" viewBox="0 0 256 257"><defs><linearGradient id="IconifyId1813088fe1fbb01fb466" x1="-.828%" x2="57.636%" y1="7.652%" y2="78.411%"><stop stop-color="#41D1FF" offset="0%"></stop><stop stop-color="#BD34FE" offset="100%"></stop></linearGradient><linearGradient id="IconifyId1813088fe1fbb01fb467" x1="43.376%" x2="50.316%" y1="2.242%" y2="89.03%"><stop stop-color="#FFBD4F" offset="0%"></stop><stop stop-color="#FF9640" offset="100%"></stop></linearGradient></defs><path fill="url(#IconifyId1813088fe1fbb01fb466)" d="M255.153 37.938L134.897 252.976c-2.483 4.44-8.862 4.466-11.382.048L.875 37.958c-2.746-4.814 1.371-10.67 6.827-9.67l120.703 21.572a6.862 6.862 0 0 0 2.422-.004L248.32 28.254c5.455-.995 9.574 4.86 6.833 9.684Z"></path><path fill="url(#IconifyId1813088fe1fbb01fb467)" d="M185.432.063L96.44 17.501a3.428 3.428 0 0 0-2.732 3.165l-5.47 89.447a3.428 3.428 0 0 0 4.166 3.562l24.786-5.723a3.428 3.428 0 0 1 4.081 3.801l-7.37 36.098a3.428 3.428 0 0 0 4.625 3.812l15.313-5.464a3.428 3.428 0 0 1 4.624 3.812l-11.7 56.676c-.7 3.397 3.808 5.243 5.69 2.322l.806-1.248l72.498-144.033c1.485-2.953-.831-6.368-4.114-5.847l-25.45 4.389a3.428 3.428 0 0 1-3.943-4.315l16.567-57.773c.805-2.81-1.72-5.398-4.55-4.573Z"></path></svg>